<svg id="Layer_1" data-name="Layer 1" xmlns="http://www.w3.org/2000/svg" viewBox="0 0 273.38 488"><path d="M328.38,91a9.84,9.84,0,0,0,7-2.9l41.9-41.2a10,10,0,1,0-14-14.2l-41.9,41.2a10,10,0,0,0-.1,14.1A9.76,9.76,0,0,0,328.38,91Z" transform="translate(-107.31 0)"/><path d="M153.08,88.2A9.68,9.68,0,0,0,160,91a10.15,10.15,0,0,0,7.2-3,9.87,9.87,0,0,0-.2-14.1l-42.7-41.2A10,10,0,1,0,110.38,47Z" transform="translate(-107.31 0)"/><path d="M243.78,80.3a10,10,0,0,0,10-10V10a10,10,0,0,0-20,0V70.3A10,10,0,0,0,243.78,80.3Z" transform="translate(-107.31 0)"/><path d="M376,198.9h0a130.51,130.51,0,0,0-49-70.4,139.68,139.68,0,0,0-83.2-26.9,137.77,137.77,0,0,0-82.6,27,131.23,131.23,0,0,0-48.9,70.4,126.25,126.25,0,0,0,5.7,84.5,133.75,133.75,0,0,0,52.5,60.6v31.7l-.1,41.2v.2c.9,39.1,33.8,70.8,73.4,70.8,40.4,0,73.3-31.9,73.3-71.1V344a134.12,134.12,0,0,0,53.1-60.7A125.86,125.86,0,0,0,376,198.9ZM243.78,468a53.65,53.65,0,0,1-52.1-41.1H296C291.18,450.3,269.58,468,243.78,468Zm53.4-61.1H190.48l.1-21.2h106.6Zm5-77.4h0a10.06,10.06,0,0,0-5.2,8.8v27.4H190.48V338.3a10,10,0,0,0-5.1-8.7c-45.4-25.5-67.6-76.9-53.8-125.2,13.7-48.7,59.8-82.8,112.2-82.8,53.6,0,99,33.3,113,82.8C370.58,252.7,348.08,304.2,302.18,329.5Z" transform="translate(-107.31 0)"/></svg>