<svg id="Calque_1" data-name="Calque 1" xmlns="http://www.w3.org/2000/svg" viewBox="0 0 706.08 980"><path d="M472.5,14.34C441.46,24.88,419.81,52.66,416,87l-1.34,11.11H379.58c-23.18,0-36.79.77-40,2.3C329.77,104.78,329,109,329,161.3v47.9l6.51,7.28,6.51,7.09,154.63.58c138.34.38,155.2.19,161-2.68,11.5-5.36,12.45-10,12.45-62.08,0-48.86-1-54.8-9.39-59.4-2.3-1.15-18.78-1.92-40-1.92H584.4l-1.92-14.18c-3.64-25.1-14.56-43.69-33.72-58.06C527.3,10.13,498,5.72,472.5,14.34ZM510.83,58.8c10,5,15.52,13.6,15.52,23.57,0,16.86-10.73,27.21-28,27.21-7.66,0-9.77-1-16.29-7.28-8-8.24-10.35-14.56-8.62-24.14C476.72,61.1,496.07,51.13,510.83,58.8Z" transform="translate(-146.97 -10)"/><path d="M196.59,132.37c-22.42,7.09-38.7,23.57-45.79,46C147,190.24,147,195.41,147,558.7c0,330.9.38,369.42,3.07,378.8A77.29,77.29,0,0,0,190.85,985l10.73,5h595.9l12.84-6.13a75.5,75.5,0,0,0,36.6-36.6l6.13-12.84V183.33l-5.56-11.88c-6.71-14.56-21.65-29.31-37-36.6-10.54-5-12.84-5.17-45-5.75l-34.11-.77v61.51l28,.57c25.1.58,28.17,1,30.66,4.41,2.3,3.07,2.68,54.8,2.3,365.39-.57,344.12-.77,361.75-4,365s-17.63,3.45-287.22,3.83l-283.77.19-4.41-4.41-4.6-4.6V558.86c0-358.69,0-361.18,3.83-365,3.45-3.45,6.32-3.83,29.7-3.83h25.87V128.7l-30.08.19C214,128.92,205,129.69,196.59,132.37Z" transform="translate(-146.97 -10)"/><path d="M395.1,301.37c-22.8,9.39-63.23,43.11-74.73,62.46l-3.45,5.94-11.31-9.39C299.29,355.21,293.73,351,293,351c-3.83,0-10,6.51-10,10.54,0,4.79,26.06,37,32.57,40.05,7.66,3.45,12.26-.38,26.44-22.42,16.67-25.87,33.15-44.45,54-60.74,11.5-9.2,15.33-13.41,14.94-16.29C410.23,297,406.4,296.77,395.1,301.37Z" transform="translate(-146.97 -10)"/><path d="M246.22,312.87c-3.26,1.72-3.45,6.9-3.45,63.8,0,57.48.19,62.08,3.45,64.95,3.07,2.87,10.35,3.26,62.46,3.26H367.5l4.6-4.79c4.79-4.6,4.79-4.79,4.79-42.34,0-43.11.57-42.35-15.33-18.59-9.2,13.8-9.58,14.95-9.58,27.59V420h-84.3v-84.3h53.64L334,323.22l12.84-12.46H298.14C268.64,310.76,248.13,311.72,246.22,312.87Z" transform="translate(-146.97 -10)"/><path d="M449.7,318.42a11.62,11.62,0,0,0,0,17.24c3.83,3.83,6.32,3.83,134.7,3.83,145.62,0,139.3.57,139.3-12.46s6.32-12.45-139.3-12.45C456,314.59,453.54,314.59,449.7,318.42Z" transform="translate(-146.97 -10)"/><path d="M449.7,374c-4.79,4.79-5,13.8-.38,17.82,3.26,2.87,12.26,3.26,91,3.26,85.07,0,87.75-.19,91.4-3.83a11.62,11.62,0,0,0,0-17.24c-3.64-3.64-6.32-3.83-91-3.83S453.34,370.35,449.7,374Z" transform="translate(-146.97 -10)"/><path d="M250.43,505.62c-7.28,2.68-7.66,5.36-7.66,66.87,0,51.93.38,60.36,3.07,62.85,2.49,2.68,11.11,3.07,64,3.07,60.93,0,61.12,0,64-4.22,2.68-3.64,3.07-12.84,3.07-62.46V513.67l-4.79-4.6-4.6-4.79-57.1.19C279,504.47,252,505.05,250.43,505.62ZM352,571.15v42l-6.13,1.15c-8.05,1.34-68.21,1.34-73.77-.19-4.41-1-4.41-1-4.41-42.92v-42H352v42Z" transform="translate(-146.97 -10)"/><path d="M449.13,515.39a12,12,0,0,0,.77,16.86c3.83,3.45,9.2,3.64,129.91,4.22,69.17.38,128.38,0,131.83-.57,8.05-1.53,12.07-5.56,12.07-12.46,0-12.07,7.28-11.5-138.72-11.5C458.71,511.94,452,512.14,449.13,515.39Z" transform="translate(-146.97 -10)"/><path d="M449.13,571c-3.45,3.64-4.22,11.31-1.73,14.94,4,6.13,10.16,6.52,93.89,6.52,82.2,0,84.31,0,89.29-4,5.94-4.6,6.71-13,1.53-17.63-3.26-2.87-12.45-3.26-91.78-3.26C457.37,567.51,452,567.7,449.13,571Z" transform="translate(-146.97 -10)"/><path d="M246,703.17c-2.87,3.07-3.26,10.54-3.26,64.19,0,60.36,0,60.55,4.22,63.42,3.64,2.68,12.84,3.06,62.46,3.06H367.5l4.6-4.79,4.79-4.6V765.82c0-56-.19-58.63-3.83-62.27s-6.32-3.83-63.8-3.83C253.5,699.72,248.9,699.91,246,703.17Zm106,63.61v42.15h-84.3v-84.3H352Z" transform="translate(-146.97 -10)"/><path d="M449.7,709.3a11.62,11.62,0,0,0,0,17.24c3.83,3.83,6.32,3.83,134.7,3.83,145.62,0,139.3.57,139.3-12.45s6.32-12.45-139.3-12.45C456,705.47,453.54,705.47,449.7,709.3Z" transform="translate(-146.97 -10)"/><path d="M449.7,764.86c-5.17,5.17-5,14.37.38,18,3.83,2.68,15.71,3.06,91,3.06,84.31,0,87-.19,90.63-3.83a11.62,11.62,0,0,0,0-17.24c-3.64-3.64-6.32-3.83-91-3.83S453.34,761.22,449.7,764.86Z" transform="translate(-146.97 -10)"/></svg>